# xmcd
# 
# Track frame offsets:
#     150
#     28022
#     49207
#     75667
#     99040
#     111602
#     139097
#     162172
#     194122
#     217457
# 
# Disc length: 3208
# 
# Revision: 14
# Processed by: cddbd v1.5.2PL0 Copyright (c) Steve Scherf et al.
# Submitted via: BonkEnc v1.0.8
# 
DISCID=940c860a
DTITLE=Nine Inch Nails - Things Falling Apart
DYEAR=2000
DGENRE=Industrial
TTITLE0=Slipping Away
TTITLE1=The Great Collapse
TTITLE2=The Wretched (version)
TTITLE3=Starfuckers Inc. (version 1)
TTITLE4=The Frail (version)
TTITLE5=Starfuckers Inc. (version 2)
TTITLE6=Where Is Everybody? (version)
TTITLE7=Metal
TTITLE8=10 Miles High (version)
TTITLE9=Starfuckers Inc. (version 3)
EXTD=
EXTT0=
EXTT1=
EXTT2=
EXTT3=
EXTT4=
EXTT5=
EXTT6=
EXTT7=
EXTT8=
EXTT9=
PLAYORDER=
